<?xml version="1.0" encoding="UTF-8"?>
<svg width="46px" height="33px" viewBox="0 0 46 33" version="1.1" xmlns="http://www.w3.org/2000/svg" xmlns:xlink="http://www.w3.org/1999/xlink">
    <!-- Generator: Sketch 52.2 (67145) - http://www.bohemiancoding.com/sketch -->
    <title>LOGO</title>
    <desc>Created with Sketch.</desc>
    <g id="Page-1" stroke="none" stroke-width="1" fill="none" fill-rule="evenodd">
        <g id="登录" transform="translate(-894.000000, -293.000000)">
            <g id="Group-3" transform="translate(480.000000, 263.000000)">
                <g id="LOGO" transform="translate(414.000000, 30.000000)">
                    <path d="M14.2091936,13.4415584 L22.2692113,13.4415584 L21.2022147,17.9220779 L13.002346,17.9220779 L8.9795207,32.8571429 L0,32.8571429 L8.6754326,0 L26.2202004,0 L25.142658,4.8538961 L16.5223181,4.8538961 L14.2091936,13.4415584 Z" id="Combined-Shape" fill="#00A390"></path>
                    <path d="M28.6022288,32.5289798 C36.861634,32.1880549 44.9340828,27.6298701 45.0985904,16.2418831 C45.263098,4.8538961 36.861634,0 30.7964237,0 L26.9385621,0 L25.8610196,4.8538961 L29.4528279,4.8538961 C30.3006209,4.8538961 35.2793442,4.09602178 38.9749782,9.31910131 C42.5503329,14.3721887 39.6300272,20.9265929 39.6300272,20.9265929 C39.6300272,20.9265929 38.8687818,18.0824994 36.861634,16.0220139 C34.8544862,13.9615284 32.9113464,13.4415584 31.8088998,13.4415584 C28.6022288,13.4415584 22.987573,13.4415584 22.987573,13.4415584 L21.9100305,17.9220779 L31.3634314,17.9220779 C32.2238519,17.9220779 35.5831046,19.377481 35.3775577,23.5839844 C35.3309215,24.5383929 35.1602603,27.379737 29.4742244,29.6258307 C23.7881885,31.8719245 9.33870153,32.8571429 9.33870153,32.8571429 C9.33870153,32.8571429 27.8551321,32.5598179 28.6022288,32.5289798 Z" id="Oval" fill="#004C92"></path>
                </g>
            </g>
        </g>
    </g>
</svg>