<?xml version="1.0" encoding="UTF-8"?>
<svg width="14px" height="13px" viewBox="0 0 14 13" version="1.1" xmlns="http://www.w3.org/2000/svg" xmlns:xlink="http://www.w3.org/1999/xlink">
    <!-- Generator: Sketch 52.2 (67145) - http://www.bohemiancoding.com/sketch -->
    <title>el-icon-upload2</title>
    <desc>Created with Sketch.</desc>
    <g id="Page-1" stroke="none" stroke-width="1" fill="none" fill-rule="evenodd">
        <g id="试验运行-运行报表-样机故障反馈" transform="translate(-1300.000000, -256.000000)" fill="#8492A6">
            <g id="Group-14" transform="translate(240.000000, 230.000000)">
                <g id="Group-9" transform="translate(1060.000000, 23.000000)">
                    <path d="M13.1922299,16 L0.807769771,16 C0.361784171,16 0,15.6360016 0,15.1874747 L1.61308451e-08,11.1248483 C1.61308451e-08,10.6763214 0.361381303,10.3119186 0.807769787,10.3119186 C1.25375539,10.3119186 1.61513667,10.675917 1.61513667,11.1248483 L1.61513667,14.3749494 L12.3844601,14.3749494 L12.3844601,11.1248483 C12.3844601,10.6763214 12.7454385,10.3119186 13.191827,10.3119186 C13.6382155,10.3119186 13.9999997,10.675917 13.9999997,11.1248483 L13.9999997,15.1874747 C14.0004025,15.6360016 13.6386184,16 13.1922299,16 L13.1922299,16 Z M9.42330913,7.33279408 C9.18480554,7.33279408 8.97087748,7.22925677 8.82302137,7.06383973 L8.82302137,7.06383973 L7.80776959,5.92897367 L7.80776959,10.8534673 L7.80776959,10.8534673 C7.80776959,11.3019942 7.44598542,11.6659926 7.0004027,11.6659926 C6.55401422,11.6659926 6.19263293,11.3023987 6.19263293,10.8534673 L6.19263293,10.8534673 L6.19263294,5.9293781 L5.17738117,7.06424416 L5.17738117,7.06424416 C5.02952505,7.2296612 4.81559699,7.33319852 4.57669054,7.33319852 C4.13110782,7.33319852 3.76892076,6.96960458 3.76892076,6.52107769 C3.76892076,6.31198084 3.84748191,6.12148836 3.97640277,5.97750676 L3.97640277,5.97750676 L6.39930919,3.26895435 L6.39930919,3.26895435 C6.54756817,3.10394175 6.76109336,3 6.99999982,3 C7.23810052,3 7.45283433,3.10353732 7.60028758,3.26895435 L7.60028758,3.26895435 L10.0235969,5.97750676 L10.0235969,5.97750676 C10.1521149,6.12148834 10.2310789,6.31198083 10.2310789,6.52107769 C10.2310789,6.96920015 9.86929473,7.33279408 9.42330913,7.33279408 L9.42330913,7.33279408 Z" id="el-icon-upload2"></path>
                </g>
            </g>
        </g>
    </g>
</svg>