<?xml version="1.0" encoding="UTF-8"?>
<svg width="10px" height="69px" viewBox="0 0 10 69" version="1.1" xmlns="http://www.w3.org/2000/svg" xmlns:xlink="http://www.w3.org/1999/xlink">
    <!-- Generator: Sketch 52.1 (67048) - http://www.bohemiancoding.com/sketch -->
    <title>Rectangle 2</title>
    <desc>Created with Sketch.</desc>
    <g id="Page-1" stroke="none" stroke-width="1" fill="none" fill-rule="evenodd">
        <g id="试验运行-运行监控-地图模式" transform="translate(-240.000000, -468.000000)" fill="#D8D8D8" fill-rule="nonzero">
            <g id="Group-16" transform="translate(240.000000, 246.000000)">
                <g id="Group-13-Copy-3" transform="translate(0.000000, 222.000000)">
                    <path d="M1,55 L1,61 L5,61 L5,62 L1,62 L1,68 L10,68 L10,69 L1,69 L0,69 L0,0 L1,0 L1,5 L5,5 L5,6 L1,6 L1,12 L5,12 L5,13 L1,13 L1,19 L5,19 L5,20 L1,20 L1,26 L5,26 L5,27 L1,27 L1,33 L5,33 L5,34 L1,34 L1,40 L5,40 L5,41 L1,41 L1,47 L5,47 L5,48 L1,48 L1,54 L5,54 L5,55 L1,55 Z" id="Rectangle-2"></path>
                </g>
            </g>
        </g>
    </g>
</svg>