<?xml version="1.0" encoding="UTF-8"?>
<svg width="42px" height="42px" viewBox="0 0 42 42" version="1.1" xmlns="http://www.w3.org/2000/svg" xmlns:xlink="http://www.w3.org/1999/xlink">
    <!-- Generator: Sketch 52.2 (67145) - http://www.bohemiancoding.com/sketch -->
    <title>ic_translate</title>
    <desc>Created with Sketch.</desc>
    <g id="Page-1" stroke="none" stroke-width="1" fill="none" fill-rule="evenodd">
        <g id="首页" transform="translate(-1182.000000, -19.000000)">
            <g id="Group-7" transform="translate(1183.000000, 20.000000)">
                <g id="ic_translate">
                    <circle id="Oval" stroke="#E0E6ED" fill="#FFFFFF" fill-rule="nonzero" cx="20" cy="20" r="20"></circle>
                    <g id="Icon-24px" transform="translate(8.000000, 8.000000)">
                        <polygon id="Shape" points="0 0 24 0 24 24 0 24"></polygon>
                        <path d="M12.87,15.07 L10.33,12.56 L10.36,12.53 C12.1,10.59 13.34,8.36 14.07,6 L17,6 L17,4 L10,4 L10,2 L8,2 L8,4 L1,4 L1,5.99 L12.17,5.99 C11.5,7.92 10.44,9.75 9,11.35 C8.07,10.32 7.3,9.19 6.69,8 L4.69,8 C5.42,9.63 6.42,11.17 7.67,12.56 L2.58,17.58 L4,19 L9,14 L12.11,17.11 L12.87,15.07 L12.87,15.07 Z M18.5,10 L16.5,10 L12,22 L14,22 L15.12,19 L19.87,19 L21,22 L23,22 L18.5,10 L18.5,10 Z M15.88,17 L17.5,12.67 L19.12,17 L15.88,17 L15.88,17 Z" id="Shape" fill="#C0CCDA"></path>
                    </g>
                </g>
            </g>
        </g>
    </g>
</svg>