<?xml version="1.0" encoding="UTF-8"?>
<svg width="14px" height="14px" viewBox="0 0 14 14" version="1.1" xmlns="http://www.w3.org/2000/svg" xmlns:xlink="http://www.w3.org/1999/xlink">
    <!-- Generator: Sketch 52.2 (67145) - http://www.bohemiancoding.com/sketch -->
    <title>el-icon-circle-check copy 4</title>
    <desc>Created with Sketch.</desc>
    <g id="Page-2" stroke="none" stroke-width="1" fill="none" fill-rule="evenodd">
        <g id="试验计划-试验项目-试验立项详情-流程进度" transform="translate(-530.000000, -621.000000)" fill="#13CE66">
            <g id="Group-3" transform="translate(60.000000, 336.000000)">
                <g id="Group-7" transform="translate(40.000000, 100.000000)">
                    <g id="Group-12" transform="translate(275.000000, 132.000000)">
                        <path d="M162,53 C161.035251,53 160.126606,53.1822908 159.274038,53.5468745 C158.421471,53.9114603 157.678288,54.4106529 157.044471,55.0444717 C156.410654,55.6782883 155.91146,56.4214708 155.546875,57.2740385 C155.18229,58.1266062 155,59.0352514 155,60 C155,60.9647486 155.18229,61.8733938 155.546875,62.7259615 C155.91146,63.5785292 156.410654,64.3217117 157.044471,64.9555287 C157.678288,65.5893462 158.421471,66.0885399 159.274038,66.4531251 C160.126606,66.8177102 161.035251,67 162,67 C162.964749,67 163.873394,66.8177102 164.725962,66.4531251 C165.578529,66.0885399 166.321712,65.5893462 166.955528,64.9555287 C167.589347,64.3217117 168.08854,63.5785292 168.453126,62.7259615 C168.817709,61.8733938 169,60.9647486 169,60 C169,59.0352514 168.817709,58.1266062 168.453126,57.2740385 C168.08854,56.4214708 167.589347,55.6782883 166.955528,55.0444717 C166.321712,54.4106529 165.578529,53.9114603 164.725962,53.5468745 C163.873394,53.1822908 162.964749,53 162,53 L162,53 Z M165.903846,58.4519231 L160.805287,63.5504797 C160.73798,63.6177895 160.659455,63.6514434 160.569713,63.6514434 C160.479968,63.6514434 160.401443,63.6177895 160.334134,63.5504797 L160.233174,63.4495203 L157.423077,60.6225972 C157.355769,60.5552874 157.322115,60.4767625 157.322115,60.3870182 C157.322115,60.297276 157.355769,60.2187511 157.423077,60.1514434 L158.11298,59.4615385 C158.18029,59.3942308 158.258814,59.3605769 158.348559,59.3605769 C158.438301,59.3605769 158.516826,59.3942308 158.584134,59.4615385 L160.569713,61.4639412 L164.74279,57.2908643 C164.810097,57.2235566 164.888622,57.1899049 164.978364,57.1899049 C165.068109,57.1899049 165.146634,57.2235566 165.213943,57.2908643 L165.903846,57.9807692 C165.971154,58.0480769 166.004808,58.1266018 166.004808,58.2163462 C166.004808,58.3060905 165.971154,58.3846154 165.903846,58.4519231 L165.903846,58.4519231 Z" id="el-icon-circle-check-copy-4"></path>
                    </g>
                </g>
            </g>
        </g>
    </g>
</svg>