<?xml version="1.0" encoding="UTF-8"?>
<svg width="14px" height="14px" viewBox="0 0 14 14" version="1.1" xmlns="http://www.w3.org/2000/svg" xmlns:xlink="http://www.w3.org/1999/xlink">
    <!-- Generator: Sketch 52.2 (67145) - http://www.bohemiancoding.com/sketch -->
    <title>icon-doing</title>
    <desc>Created with Sketch.</desc>
    <g id="Page-2" stroke="none" stroke-width="1" fill="none" fill-rule="evenodd">
        <g id="试验计划-试验项目-试验立项详情-流程进度" transform="translate(-719.000000, -789.000000)" fill="#20A0FF">
            <g id="Group-3" transform="translate(60.000000, 336.000000)">
                <g id="Group-7" transform="translate(40.000000, 100.000000)">
                    <g id="Group-12" transform="translate(464.000000, 300.000000)">
                        <path d="M162,67 C161.035251,67 160.126606,66.8177102 159.274038,66.4531251 C158.421471,66.0885399 157.678288,65.5893462 157.044471,64.9555287 C156.410654,64.3217117 155.91146,63.5785292 155.546875,62.7259615 C155.18229,61.8733938 155,60.9647486 155,60 C155,59.0352514 155.18229,58.1266062 155.546875,57.2740385 C155.91146,56.4214708 156.410654,55.6782883 157.044471,55.0444717 C157.678288,54.4106529 158.421471,53.9114603 159.274038,53.5468745 C160.126606,53.1822908 161.035251,53 162,53 C162.964749,53 163.873394,53.1822908 164.725962,53.5468745 C165.578529,53.9114603 166.321712,54.4106529 166.955528,55.0444717 C167.589347,55.6782883 168.08854,56.4214708 168.453126,57.2740385 C168.817709,58.1266062 169,59.0352514 169,60 C169,60.9647486 168.817709,61.8733938 168.453126,62.7259615 C168.08854,63.5785292 167.589347,64.3217117 166.955528,64.9555287 C166.321712,65.5893462 165.578529,66.0885399 164.725962,66.4531251 C163.873394,66.8177102 162.964749,67 162,67 L162,67 Z M159,61 C159.552285,61 160,60.5522847 160,60 C160,59.4477153 159.552285,59 159,59 C158.447715,59 158,59.4477153 158,60 C158,60.5522847 158.447715,61 159,61 Z M162,61 C162.552285,61 163,60.5522847 163,60 C163,59.4477153 162.552285,59 162,59 C161.447715,59 161,59.4477153 161,60 C161,60.5522847 161.447715,61 162,61 Z M165,61 C165.552285,61 166,60.5522847 166,60 C166,59.4477153 165.552285,59 165,59 C164.447715,59 164,59.4477153 164,60 C164,60.5522847 164.447715,61 165,61 Z" id="icon-doing"></path>
                    </g>
                </g>
            </g>
        </g>
    </g>
</svg>