<?xml version="1.0" encoding="UTF-8"?>
<svg width="194px" height="32px" viewBox="0 0 194 32" version="1.1" xmlns="http://www.w3.org/2000/svg" xmlns:xlink="http://www.w3.org/1999/xlink">
    <!-- Generator: Sketch 52.2 (67145) - http://www.bohemiancoding.com/sketch -->
    <title>logo</title>
    <desc>Created with Sketch.</desc>
    <g id="Page-1" stroke="none" stroke-width="1" fill="none" fill-rule="evenodd">
        <g id="首页" transform="translate(-20.000000, -24.000000)" fill="#0165B4" fill-rule="nonzero">
            <path d="M178.693628,48.926864 L156.889156,48.926864 C155.649617,48.926864 155.039634,48.5281253 155.039634,47.2700641 L155.039634,24.9765029 C155.039634,24.0374326 154.693867,24 154.034955,24 L146.723305,24 C145.976319,24 145.769186,24.0374326 145.769186,24.9765029 L145.769186,46.5083918 C145.769186,53.6840606 148.326551,56 155.342994,56 L178.832261,56 C179.688522,56 179.688522,55.7200692 179.688522,55.0169871 L179.688522,49.9668396 C179.688522,49.2442274 179.688522,48.9252365 178.693628,48.9252365 M138.870172,24 L115.341762,24 C108.928778,24 104.99161,26.037636 104.99161,32.7673685 L104.99161,47.2521615 C104.99161,53.962364 108.928778,56 115.341762,56 L138.870172,56 C139.775362,56 139.747635,55.7200692 139.747635,55.0169871 L139.747635,50.0449598 C139.747635,49.3662903 139.775362,49.0472994 138.870172,49.0472994 L115.795172,49.0472994 C114.792124,49.0472994 114.250641,48.6648357 114.250641,47.6688028 L114.250641,43.2940698 L138.221045,43.2940698 C139.13602,43.2940698 139.077305,42.9929814 139.077305,42.3354694 L139.077305,37.3634422 C139.077305,36.6603601 139.13602,36.4194894 138.221045,36.4194894 L114.250641,36.4194894 L114.250641,32.3458448 C114.250641,31.3286543 114.792124,30.9071305 115.795172,30.9071305 L138.870172,30.9071305 C139.775362,30.9071305 139.747635,30.6499847 139.747635,29.90947 L139.747635,24.9765029 C139.747635,24.2978334 139.775362,24 138.870172,24 M98.8901419,24 L75.4025063,24 C68.9976771,24 65.022997,26.037636 65.022997,32.7673685 L65.022997,47.2521615 C65.022997,53.962364 68.9976771,56 75.4025063,56 L98.8934038,56 C99.8067484,56 99.8067484,55.7200692 99.8067484,55.0169871 L99.8067484,50.0449598 C99.8067484,49.3662903 99.8067484,49.0472994 98.8934038,49.0472994 L75.896691,49.0472994 C74.8822261,49.0472994 74.3407432,48.6648357 74.3407432,47.6688028 L74.3407432,43.2940698 L98.2605865,43.2940698 C99.1967647,43.2940698 99.1967647,42.9929814 99.1967647,42.3354694 L99.1967647,37.3634422 C99.1967647,36.6603601 99.1967647,36.4194894 98.2605865,36.4194894 L74.3391122,36.4194894 L74.3391122,32.3458448 C74.3391122,31.3286543 74.8805951,30.9071305 75.89506,30.9071305 L98.8917729,30.9071305 C99.8051175,30.9071305 99.8051175,30.6499847 99.8051175,29.90947 L99.8051175,24.9765029 C99.8051175,24.2978334 99.8051175,24 98.8917729,24 M58.0342797,24 L30.4414862,24 C23.9257509,24 20,26.037636 20,32.7673685 L20,47.2521615 C20,53.962364 23.9257509,56 30.4414862,56 L58.0342797,56 C58.968827,56 58.9476243,55.7200692 58.9476243,55.0169871 L58.9476243,37.3634422 C58.9476243,36.6603601 58.968827,36.4194894 58.0342797,36.4194894 L35.2332835,36.4194894 C34.3476655,36.4194894 34.3786539,36.6603601 34.3786539,37.3634422 L34.3786539,42.3354694 C34.3786539,42.9929814 34.3460345,43.2940698 35.2332835,43.2940698 L49.6592357,43.2940698 L49.6592357,49.0472994 L30.8443364,49.0472994 C29.86086,49.0472994 29.2998054,48.6648357 29.2998054,47.6688028 L29.2998054,32.3458448 C29.2998054,31.3286543 29.86086,30.9071305 30.8443364,30.9071305 L58.0342797,30.9071305 C58.968827,30.9071305 58.9476243,30.6499847 58.9476243,29.90947 L58.9476243,24.9765029 C58.9476243,24.2978334 58.968827,24 58.0342797,24 M213.332223,24 L204.929453,24 C203.844856,24 202.960869,24.174143 202.163323,25.0529956 L190.572001,37.7019632 L179.047549,25.0529956 C178.214122,24.174143 177.395374,24 176.274896,24 L167.849292,24 C167.201796,24 166.895173,24.3580511 167.713921,25.1978436 L185.935146,45.1901129 L185.935146,55.0576747 C185.935146,56 186.249924,56 186.967552,56 L194.251475,56 C194.949532,56 195.225166,56 195.225166,55.0576747 L195.225166,45.1901129 L213.526309,25.1978436 C214.305914,24.3564236 214.040065,24 213.330592,24" id="logo"></path>
        </g>
    </g>
</svg>