<?xml version="1.0" encoding="UTF-8"?>
<svg width="42px" height="42px" viewBox="0 0 42 42" version="1.1" xmlns="http://www.w3.org/2000/svg" xmlns:xlink="http://www.w3.org/1999/xlink">
    <!-- Generator: Sketch 52.2 (67145) - http://www.bohemiancoding.com/sketch -->
    <title>message</title>
    <desc>Created with Sketch.</desc>
    <g id="Page-1" stroke="none" stroke-width="1" fill="none" fill-rule="evenodd">
        <g id="首页" transform="translate(-1237.000000, -19.000000)" fill-rule="nonzero">
            <g id="Group-7" transform="translate(1183.000000, 20.000000)">
                <g id="message" transform="translate(55.000000, 0.000000)">
                    <circle id="Oval" stroke="#E0E6ED" fill="#FFFFFF" cx="20" cy="20" r="20"></circle>
                    <path d="M21.5057915,19.2413793 L29.4594595,12.5517241 C29.0733591,12.2068966 28.5328185,12 27.992278,12 L12.1621622,12 C11.5444015,12 11.0810811,12.2068966 10.6949807,12.5517241 L18.6486486,19.2413793 C19.4208494,19.9310345 20.6563707,19.9310345 21.5057915,19.2413793 Z M21.5057915,21.3793104 C20.7335907,22.0689655 19.4208494,22.0689655 18.6486486,21.3793104 L10,14.2068966 L10,26.137931 C10,27.1724138 10.9266409,28 12.0849421,28 L27.9150579,28 C29.0733591,28 30,27.1724138 30,26.137931 L30,14.2068966 L21.5057915,21.3793104 Z" id="Shape" fill="#C0CCDA"></path>
                </g>
            </g>
        </g>
    </g>
</svg>