<?xml version="1.0" encoding="UTF-8"?>
<svg width="20px" height="20px" viewBox="0 0 20 20" version="1.1" xmlns="http://www.w3.org/2000/svg" xmlns:xlink="http://www.w3.org/1999/xlink">
    <!-- Generator: Sketch 52.2 (67145) - http://www.bohemiancoding.com/sketch -->
    <title>news</title>
    <desc>Created with Sketch.</desc>
    <g id="Page-1" stroke="none" stroke-width="1" fill="none" fill-rule="evenodd">
        <g id="首页" transform="translate(-260.000000, -115.000000)" fill="#99A9BF" fill-rule="nonzero">
            <g id="Group-10" transform="translate(240.000000, 100.000000)">
                <g id="Group-9" transform="translate(20.000000, 15.000000)">
                    <path d="M10,4.23076922 C11.1057434,4.23076922 12.1661984,4.66840532 12.9480771,5.44740259 C13.7299557,6.22639986 14.1692106,7.28294688 14.1692106,8.38461538 L14.1692106,13.3138461 C14.1684735,13.6983913 14.2901112,14.0732706 14.5166448,14.3846154 L15.1744536,15.3076923 L4.82554639,15.3076923 L5.48335518,14.3846154 C5.70988875,14.0732706 5.83152645,13.6983913 5.8307894,13.3138461 L5.8307894,8.38461538 C5.8307894,7.28294688 6.27004425,6.22639986 7.05192291,5.44740259 C7.83380157,4.66840532 8.8942566,4.23076922 10,4.23076922 Z M10,2.84615385 C6.92987809,2.84615385 4.44105253,5.32580754 4.44105253,8.38461538 L4.44105253,13.3138461 C4.44042897,13.4100349 4.40965642,13.503626 4.35303587,13.5815385 L3.17175952,15.2338462 C2.9705792,15.5153648 2.94408099,15.8852634 3.10309251,16.1923951 C3.26210402,16.4995268 3.57998732,16.6924402 3.92684988,16.6923077 L16.0731501,16.6923077 C16.4200127,16.6924402 16.737896,16.4995268 16.8969075,16.1923951 C17.055919,15.8852634 17.0294208,15.5153648 16.8282405,15.2338462 L15.6469641,13.5815385 C15.5903436,13.503626 15.559571,13.4100349 15.5589475,13.3138461 L15.5589475,8.38461538 C15.5589475,5.32580754 13.0701219,2.84615385 10,2.84615385 Z M10.4632456,2.38461537 L9.53675438,2.38461537 C9.15303508,2.38455066 8.84200355,2.07461291 8.84200355,1.69230768 C8.84200355,1.31000246 9.15303508,1.00006471 9.53675438,1 L10.4632456,1 C10.8469649,1.00006471 11.1579964,1.31000246 11.1579964,1.69230768 C11.1579964,2.07461291 10.8469649,2.38455066 10.4632456,2.38461537 Z M11.6213597,19 L8.84188595,19 C8.45812071,19 8.14701751,18.6900433 8.14701751,18.3076923 C8.14701751,17.9253413 8.45812071,17.6153846 8.84188595,17.6153846 L11.6213597,17.6153846 C12.0051249,17.6153846 12.3162281,17.9253413 12.3162281,18.3076923 C12.3162281,18.6900433 12.0051249,19 11.6213597,19 Z" id="Shape"></path>
                </g>
            </g>
        </g>
    </g>
</svg>