<?xml version="1.0" encoding="UTF-8"?>
<svg width="36px" height="36px" viewBox="0 0 36 36" version="1.1" xmlns="http://www.w3.org/2000/svg" xmlns:xlink="http://www.w3.org/1999/xlink">
    <!-- Generator: Sketch 48.2 (47327) - http://www.bohemiancoding.com/sketch -->
    <title>Group 4</title>
    <desc>Created with Sketch.</desc>
    <defs></defs>
    <g id="任务汇报" stroke="none" stroke-width="1" fill="none" fill-rule="evenodd" transform="translate(-968.000000, -92.000000)">
        <g id="Group-4" transform="translate(968.000000, 92.000000)">
            <rect id="Rectangle-2" stroke="#E0E6ED" x="0.5" y="0.5" width="35" height="35" rx="4"></rect>
            <path d="M8.12579671,9 L10.6316672,9 L10.6316672,15.9339043 L8.12579671,15.9339043 L8.12579671,9 Z M8.12579671,22.0970024 L10.6316672,22.0970024 L10.6316672,27 L8.12579671,27 L8.12579671,22.0970024 Z M12.2821201,9 L13.7279436,9 L13.7279436,15.9339043 L12.2821201,15.9339043 L12.2821201,9 Z M12.2821201,22.0970024 L13.7279436,22.0970024 L13.7279436,27 L12.2821201,27 L12.2821201,22.0970024 Z M15.3783965,22.0970024 L17.8473667,22.0970024 L17.8473667,27 L15.3783965,27 L15.3783965,22.0970024 Z M15.3783965,9 L17.8473667,9 L17.8473667,15.9339043 L15.3783965,15.9339043 L15.3783965,9 Z M19.4944649,9 L23.5836967,9 L23.5836967,15.9339043 L19.4944649,15.9339043 L19.4944649,9 Z M19.4944649,22.0970024 L23.5836967,22.0970024 L23.5836967,27 L19.4944649,27 L19.4944649,22.0970024 Z M25.230795,9 L27.8004025,9 L27.8004025,15.9339043 L25.230795,15.9339043 L25.230795,9 Z M25.230795,22.0970024 L27.8004025,22.0970024 L27.8004025,27 L25.230795,27 L25.230795,22.0970024 Z M3,18.9501024 L32.9966454,18.9501024 L3,18.9501024 Z M3,18.0217837 L33,18.0217837 L33,19.8784212 L3,19.8784212 L3,18.0217837 Z" id="Shape" fill="#C0CCDA" fill-rule="nonzero"></path>
        </g>
    </g>
</svg>