<?xml version="1.0" encoding="UTF-8"?>
<svg width="19px" height="17px" viewBox="0 0 19 17" version="1.1" xmlns="http://www.w3.org/2000/svg" xmlns:xlink="http://www.w3.org/1999/xlink">
    <!-- Generator: Sketch 52.2 (67145) - http://www.bohemiancoding.com/sketch -->
    <title>设置 icon</title>
    <desc>Created with Sketch.</desc>
    <g id="Page-1" stroke="none" stroke-width="1" fill="none" fill-rule="evenodd">
        <g id="试验运行-运行报表-设备故障反馈-设备保修信息录入" transform="translate(-20.000000, -597.000000)" fill="#0165B4">
            <g id="导航" transform="translate(0.000000, 80.000000)">
                <g id="Group-5" transform="translate(0.000000, 500.000000)">
                    <g id="导航三" transform="translate(20.000000, 17.000000)">
                        <g id="设置-icon">
                            <path d="M18.1491434,7.16488972 C18.0784739,6.77457557 17.6981053,6.37604428 17.3011087,6.28976431 L17.0059593,6.22197291 C16.3117347,6.01449013 15.6964938,5.56049314 15.3036542,4.89285053 C14.912893,4.22109934 14.8193598,3.45690532 14.9897981,2.75844842 L14.9897981,2.75844842 L15.0833314,2.48317423 C15.2018068,2.10313151 15.0479966,1.57928883 14.7382976,1.31839464 C14.7382976,1.31839464 14.4597764,1.08626043 13.6782542,0.640480595 C12.8946534,0.196755037 12.5579337,0.0734979423 12.5579337,0.0734979423 C12.1775651,-0.0641391557 11.6433864,0.0673350896 11.3648651,0.359043546 L11.159092,0.57679775 C10.6332273,1.06982615 9.92445309,1.36769748 9.14085233,1.36769748 C8.35725157,1.36769748 7.64224181,1.06571759 7.11637711,0.570634917 L6.91683951,0.359043566 C6.64247531,0.0673350896 6.10621803,-0.0620848581 5.72377097,0.0734979624 C5.72377097,0.0734979624 5.38289423,0.196755057 4.59929347,0.640480615 C3.81569269,1.09036903 3.54132849,1.32250321 3.54132849,1.32250321 C3.23162951,1.57928883 3.07781927,2.09902294 3.19629473,2.48317423 L3.28151391,2.7605027 C3.44779525,3.46101388 3.36049754,4.22109932 2.9676579,4.89285051 C2.57481825,5.5646017 1.95334177,6.02270726 1.25496018,6.22608146 L0.970203399,6.28976429 C0.579442262,6.37809854 0.194916694,6.77252126 0.12216861,7.1648897 C0.12216861,7.1648897 0.0577346041,7.51617242 0.0577346041,8.40978639 C0.0577346041,9.30340036 0.12216861,9.65468308 0.12216861,9.65468308 C0.192838185,10.0491058 0.573206715,10.4435285 0.970203399,10.5298085 L1.24872464,10.5934913 C1.94710622,10.7968655 2.57273974,11.2549711 2.96350086,11.9308308 C3.35426199,12.602582 3.44779523,13.3667761 3.27735687,14.065233 L3.27735687,14.065233 L3.19629473,14.3363986 C3.07781929,14.7164413 3.23162951,15.240284 3.54132849,15.5011782 C3.54132849,15.5011782 3.81984972,15.7333124 4.60137198,16.1790922 C5.38497276,16.624872 5.72169246,16.7460749 5.72169246,16.7460749 C6.10206101,16.883712 6.63623978,16.7522377 6.914761,16.4605293 L7.11014157,16.2530465 C7.6401633,15.7579638 8.35309451,15.4539296 9.1387738,15.4539296 C9.92445309,15.4539296 10.6415413,15.7600181 11.167406,16.2551008 L11.167406,16.2551008 L11.3627866,16.4625835 C11.6371508,16.754292 12.1734081,16.883712 12.5558551,16.7481291 C12.5558551,16.7481291 12.8967319,16.624872 13.6803326,16.1811465 C14.4639334,15.7353666 14.7382976,15.5032324 14.7382976,15.5032324 C15.0479966,15.2464468 15.2018068,14.7226041 15.0833314,14.3384529 L14.9981122,14.0570158 C14.8318308,13.3606132 14.9191286,12.6005278 15.3119682,11.9328851 C15.7027293,11.2611339 16.3304413,10.8009741 17.0267444,10.5955456 L17.0267444,10.5955456 L17.3052657,10.5318628 C17.6960268,10.4435285 18.0805524,10.0491058 18.1533004,9.65673736 C18.1533004,9.65673736 18.2177345,9.30545464 18.2177345,8.41184067 C18.2135775,7.51822674 18.1491434,7.16488972 18.1491434,7.16488972 L18.1491434,7.16488972 L18.1491434,7.16488972 L18.1491434,7.16488972 Z M9.14085231,11.9883509 C7.14339781,11.9883509 5.52007632,10.3880629 5.52007632,8.40978641 C5.52007632,6.43561853 7.13924078,4.83533054 9.14085231,4.83533054 C11.1383068,4.83533054 12.7616283,6.43561853 12.7616283,8.41389499 C12.7574713,10.3880629 11.1383068,11.9883509 9.14085231,11.9883509 L9.14085231,11.9883509 L9.14085231,11.9883509 L9.14085231,11.9883509 Z" id="Shape"></path>
                        </g>
                    </g>
                </g>
            </g>
        </g>
    </g>
</svg>