<?xml version="1.0" encoding="UTF-8"?>
<svg width="32px" height="32px" viewBox="0 0 32 32" version="1.1" xmlns="http://www.w3.org/2000/svg" xmlns:xlink="http://www.w3.org/1999/xlink">
    <!-- Generator: Sketch 52.2 (67145) - http://www.bohemiancoding.com/sketch -->
    <title>Shape</title>
    <desc>Created with Sketch.</desc>
    <g id="Page-2" stroke="none" stroke-width="1" fill="none" fill-rule="evenodd">
        <g id="试验计划-试验项目-试验立项详情-流程进度" transform="translate(-363.000000, -476.000000)" fill="#13CE66" fill-rule="nonzero">
            <g id="Group-3" transform="translate(60.000000, 336.000000)">
                <g id="Group-7" transform="translate(40.000000, 100.000000)">
                    <g transform="translate(229.000000, 40.000000)" id="Shape">
                        <path d="M63.9192889,20.760413 L63.8186595,15.1761612 C63.2865955,10.6401554 58.6368189,7.45818126 58.6368189,7.45818126 C57.357552,6.64463396 55.9880655,6.10527805 54.6289891,5.76 C54.6370857,5.81077618 54.642869,5.86268071 54.6486523,5.916842 C54.9262509,8.84719198 54.319004,13.9169118 49.8369432,14.9177668 L49.8369432,14.9211519 C49.8346299,14.9200235 49.8323166,14.9200235 49.8288466,14.9188952 C49.8265333,14.9200235 49.82422,14.9200235 49.82075,14.9211519 L49.82075,14.9177668 C45.3386892,13.9169118 44.7314423,8.84719198 45.0090409,5.916842 C45.0136675,5.86606582 45.0194508,5.816418 45.0275474,5.76789851 C36.2207318,8.52335276 35.92,16.0111473 35.92,16.0111473 L35.92,20.7908787 C36.6672029,21.41599 40.8196153,24.506567 49.9213795,24.506567 C59.1781362,24.506567 63.2831255,21.3087958 63.9192889,20.760413 Z M47.12,19.92 C47.12,18.3728252 48.3746649,17.12 49.92,17.12 C51.4671747,17.12 52.7199999,18.3746649 52.72,19.92 C52.72,21.4671748 51.4653351,22.72 49.92,22.72 C48.3728252,22.72 47.12,21.4671748 47.12,19.92 Z M49.913161,13.3413799 L49.913161,13.3391232 C46.6467508,12.6090745 46.2037497,8.91369666 46.407322,6.77771187 C46.6062677,4.67444951 47.3268293,5.96049777e-16 49.920101,0 C52.5133727,0 53.2339343,4.67444951 53.43288,6.77771187 C53.634139,8.91369666 53.1922945,12.6090745 49.9247276,13.3391232 L49.9247276,13.3413799 C49.9224143,13.3413799 49.9212577,13.3402515 49.9189443,13.3402515 C49.916631,13.3402515 49.9154744,13.3413799 49.913161,13.3413799 Z M64.1053895,22.3332778 C64.4084347,22.5465378 66,23.7493691 66,25.5265356 C66,27.4898813 64.1019195,28.5956738 64.1019195,28.5956738 C64.1019195,28.5956738 61.3259335,31.0803217 52.951709,31.8577615 C44.5774846,32.6352013 38.2621164,29.9722726 38.2621164,29.9722726 C38.2621164,29.9722726 34.2577566,28.4828378 34.0044478,25.6619388 C33.9003484,23.9976083 35.6550029,22.5770035 35.9696146,22.3355345 C36.5502583,22.8534516 40.4898452,26.0218855 49.9999106,26.0218855 C60.2409857,26.0218855 64.0221099,22.4145197 64.1053895,22.3332778 Z"></path>
                    </g>
                </g>
            </g>
        </g>
    </g>
</svg>