<?xml version="1.0" encoding="UTF-8"?>
<svg width="31px" height="32px" viewBox="0 0 31 32" version="1.1" xmlns="http://www.w3.org/2000/svg" xmlns:xlink="http://www.w3.org/1999/xlink">
    <!-- Generator: Sketch 52.2 (67145) - http://www.bohemiancoding.com/sketch -->
    <title>用户</title>
    <desc>Created with Sketch.</desc>
    <g id="Page-1" stroke="none" stroke-width="1" fill="none" fill-rule="evenodd">
        <g id="首页" transform="translate(-708.000000, -183.000000)">
            <g id="Group-13-Copy-2" transform="translate(630.000000, 170.000000)">
                <g id="用户" transform="translate(77.000000, 13.000000)">
                    <rect id="Rectangle" fill="#000000" opacity="0" x="0" y="0" width="32" height="32"></rect>
                    <path d="M30.7376603,25.6136805 C30.8433735,25.9308201 30.924213,26.3412359 30.9739603,26.8387097 C31.0237077,27.3361835 31.0485814,26.9382044 31.0485814,27.4356782 C31.0485814,27.933152 31.0112709,28.4057521 30.9428682,28.8534784 C30.8682472,29.3012048 30.7563156,29.6369996 30.6132918,29.8670812 C30.5075787,30.0163234 30.202876,30.1717839 29.7054022,30.3458997 C29.2079284,30.5200156 24.015546,32 16.7151185,32 C10.0427516,32 4.29692963,30.9179946 3.38282156,30.7127867 C2.46871353,30.5075787 1.92149238,30.3334629 1.72872128,30.1904392 C1.49242125,30.0163234 1.31830544,29.5001943 1.20637381,28.6358337 C1.09444222,27.7652546 1.13797116,27.5476098 1.34939753,26.1919938 C1.47998441,25.4084726 1.79712391,24.8115041 2.30081609,24.4135251 C2.81072672,24.0093276 3.41391366,23.6921881 4.09794006,23.4621065 C4.78818491,23.2258065 7.98445388,22.1251457 8.71822766,21.9323747 C9.45200147,21.7396036 10.0924989,21.465993 10.6397201,21.1053245 C11.0874464,20.831714 11.4294597,20.5643218 11.6719781,20.3093665 C11.9144966,20.0544112 12.0886124,19.7994559 12.1818888,19.5445006 C12.2751651,19.2895453 12.3249125,19.0283716 12.3249125,18.7485426 C12.3249125,18.474932 12.3124756,18.1764477 12.2938203,17.8530898 C12.2502914,17.3431792 12.0886124,16.9514186 11.802565,16.677808 C11.5165176,16.4041974 11.1993781,16.11815 10.8324912,15.8196658 C10.6583753,15.6704236 10.5153516,15.4652157 10.3847648,15.1978235 C10.2541779,14.9304314 10.1422463,14.6630392 10.0365332,14.3894287 C9.93081997,14.0722891 9.82510681,13.7427128 9.71939362,13.406918 C9.5701515,13.363389 9.42090938,13.2949864 9.27166725,13.1830548 C9.14108037,13.0773416 9.00427509,12.9280995 8.85503297,12.7353284 C8.70579084,12.5425573 8.58142241,12.2689468 8.46949081,11.9082783 C8.36377763,11.5538282 8.32646709,11.2242518 8.36377763,10.9382044 C8.39486975,10.652157 8.45083553,10.4034201 8.53789344,10.1919938 C8.61873294,9.95569375 8.74931978,9.73804897 8.92343559,9.52040419 C8.90478031,8.71822775 8.94209088,7.90983288 9.05402247,7.101438 C9.13486197,6.42363 9.2903225,5.70229303 9.51418569,4.93742713 C9.73804887,4.17256122 10.0614068,3.48231634 10.4842595,2.872911 C10.888457,2.30081616 11.3361833,1.82821609 11.8336571,1.45511078 C12.3311309,1.08200547 12.8348231,0.789739625 13.3447337,0.578313281 C13.8546443,0.366886938 14.3645549,0.223863219 14.8869024,0.130586906 C15.4030314,0.0497474063 15.9067236,3.12500037e-08 16.3979789,3.12500037e-08 C17.0073843,3.12500037e-08 17.6043528,0.0746210938 18.1640108,0.223863219 C18.7236688,0.373105344 19.2460163,0.559658 19.7372716,0.795958063 C20.2223085,1.03225809 20.6638165,1.28721341 21.0369218,1.57326081 C21.422464,1.85930822 21.7271667,2.15157406 21.9634667,2.45005831 C22.4920326,3.12786631 22.8900116,3.87407697 23.1574037,4.68869025 C23.4247959,5.50330353 23.6113485,6.26816947 23.7108433,6.98950641 C23.8414302,7.83521181 23.8911775,8.68713563 23.8725222,9.53284103 C24.0217644,9.61368053 24.1399144,9.74426738 24.2207539,9.91838319 C24.3015934,10.0676253 24.3762144,10.254178 24.4259618,10.490478 C24.4757092,10.7267781 24.4819276,11.0066071 24.4383987,11.3486203 C24.3762144,11.7963467 24.2705012,12.1445783 24.1399144,12.4119705 C23.9968907,12.6793626 23.8476486,12.8845705 23.6797512,13.0338127 C23.4869801,13.2079285 23.2879906,13.3198601 23.0765642,13.3820443 C22.9957247,13.7178391 22.89623,14.0536339 22.7905168,14.364555 C22.6848037,14.6381656 22.5604352,14.9117762 22.4298484,15.1729499 C22.2868247,15.440342 22.1375825,15.6455499 21.9696852,15.7947921 C21.7769141,15.9689079 21.6027982,16.1057132 21.4286824,16.2238632 C21.2545666,16.3357948 21.1115429,16.4601633 20.9809561,16.5845317 C20.8503692,16.7151186 20.744656,16.8643607 20.6638165,17.0446949 C20.582977,17.2250292 20.5145744,17.4426739 20.4710454,17.6976292 C20.4088612,18.0147688 20.3902059,18.3381267 20.4088612,18.6677031 C20.4275165,18.991061 20.5145744,19.3268558 20.6638165,19.6502138 C20.8130587,19.9735717 21.0555771,20.2907112 21.3975903,20.5891955 C21.7333851,20.8876797 22.1935484,21.1488535 22.7656432,21.3851535 C23.2942091,21.5965798 23.8787407,21.7831325 24.5005829,21.9385931 C25.1286436,22.100272 27.6471045,23.1822775 28.2254177,23.4061407 C28.803731,23.6300039 29.3260785,23.9098329 29.7800233,24.2456277 C30.2215313,24.618733 30.5448892,25.060241 30.7376603,25.6136805 Z M16.6094054,29.9354839 C16.7151186,29.9354839 16.8767975,29.8670812 17.1006607,29.7302759 C17.3245239,29.5872522 17.5421687,29.4317917 17.753595,29.2390206 C17.9650214,29.0462495 18.151574,28.8534784 18.3070346,28.6669258 C18.4687136,28.4741547 18.5433346,28.331131 18.5433346,28.2191994 C18.5433346,28.0886125 18.5122425,27.8709678 18.4500583,27.5476098 C18.3878741,27.2304703 18.3070346,26.8760202 18.2261951,26.5029149 C18.1453556,26.1173727 18.0520793,25.7442674 17.9712398,25.3711621 C17.8904003,24.9980567 17.8095608,24.6995725 17.7473766,24.4632724 C17.9588029,24.2891566 18.1391372,24.1088224 18.2883793,23.9098329 C18.4376214,23.7046249 18.5122425,23.499417 18.5122425,23.2879907 C18.5122425,23.1138748 18.4562767,22.9459774 18.3381267,22.7656432 C18.2261951,22.5853089 18.0893898,22.4360668 17.9401477,22.30548 C17.7660319,22.1562378 17.5919161,22.0069957 17.399145,21.8577536 L15.8134473,21.8577536 C15.602021,22.0069957 15.4216867,22.1562378 15.2724446,22.30548 C15.1418577,22.4360668 15.0299262,22.5790905 14.924213,22.7532063 C14.8184998,22.9273222 14.762534,23.0890011 14.762534,23.263117 C14.762534,23.3937038 14.8371551,23.5616012 14.9988341,23.7730276 C15.160513,23.9844539 15.3532841,24.1896619 15.5833657,24.3762145 C15.5211815,24.5689856 15.4341236,24.8425962 15.3284104,25.2032647 C15.2226972,25.5577147 15.1232025,25.9370385 15.0299262,26.3350175 C14.9366498,26.7267781 14.8495919,27.0998834 14.7749709,27.448115 C14.7003498,27.7963467 14.6692577,28.051302 14.6692577,28.2254178 C14.6692577,28.331131 14.7438787,28.4803731 14.9055577,28.6731442 C15.0672367,28.8659152 15.2537893,29.0586863 15.4776526,29.245239 C15.7015157,29.4380101 15.9191605,29.5996891 16.1305869,29.7364943 C16.3482316,29.8608628 16.5099106,29.9354839 16.6094054,29.9354839 Z" id="Shape" fill="#0165B4" fill-rule="nonzero"></path>
                </g>
            </g>
        </g>
    </g>
</svg>